<svg id="レイヤー_1" data-name="レイヤー 1" xmlns="http://www.w3.org/2000/svg" width="194" height="53" viewBox="0 0 194 53">
  <defs>
    <style>
      .cls-1 {
        fill: #004d39;
      }

      .cls-2 {
        fill: #e8d1b4;
      }
    </style>
  </defs>
  <g>
    <g id="グループ_4557" data-name="グループ 4557">
      <path id="パス_13939" data-name="パス 13939" class="cls-1" d="M73.936,24.9c-3.828-1.122-5.276-2.312-5.115-4.16a3.63,3.63,0,0,1,3.842-3.134,4.247,4.247,0,0,1,3.659,1.949,7.856,7.856,0,0,1,1.342,3.888l1.581-.754.529-5.974-.694-.065c-3.695-.367-5.667-.5-6.057-.528h-.461c-4.789,0-8.571,2.835-8.907,6.7-.253,2.872,1.512,4.623,6.268,6.108,3.985,1.254,5.488,2.541,5.309,4.586a4.52,4.52,0,0,1-4.647,4.026,5.809,5.809,0,0,1-5.358-3.626,11.233,11.233,0,0,1-1.071-3.957l-1.549.717-.68,7.753c.5,0,.657.037,1.154.069.684.069,1.567.133,2.619.23a40.065,40.065,0,0,0,4.32.363c5.915,0,10.239-3.1,10.639-7.652.276-3.171-1.645-5.019-6.723-6.535"/>
      <path id="パス_13940" data-name="パス 13940" class="cls-1" d="M95.863,16.125A12.758,12.758,0,0,0,83.164,28.1C82.6,34.572,86.887,39.09,93.588,39.09s11.893-5.014,12.514-12.11c.551-6.365-3.677-10.855-10.239-10.855m3.929,11.682c-.547,6.232-2.748,9.867-5.979,9.867-3.3,0-4.895-3.663-4.343-9.964.574-6.6,2.739-10.239,6.14-10.239,3.267,0,4.756,3.7,4.182,10.336"/>
      <path id="パス_13941" data-name="パス 13941" class="cls-1" d="M122.959,34.967a6.169,6.169,0,0,1-4.209,2.115,1.951,1.951,0,0,1-2.091-1.384c-.286-.961-.29-2.018-.005-5.249l.533-6.108c.354-3.993.956-5.643,2.22-6.107a5.879,5.879,0,0,1,2.265-.262l-.381-1.314H109.576L109,17.972c1.549.032,2.165.165,2.551.63.666.721.772,2.141.441,5.937l-.5,5.718c-.358,4.053-.676,5.367-1.5,6.135-.543.528-1.218.689-2.868.716l.409,1.361h10.791c2.444,0,3.6,0,4.816.1.721.037,1.144.1,2.155.229l2.463-8.185-1.153-.827a16.249,16.249,0,0,1-3.649,5.184"/>
      <path id="パス_13942" data-name="パス 13942" class="cls-1" d="M149.854,19.062a6.669,6.669,0,0,1,1.548-1.09l-.345-1.318h-7.794l-.708,1.318c2.432.134,3.461.791,3.342,2.211-.088.956-.685,2.114-2.386,4.591-.262.359-.3.493-.569.855l-3.24-8.975H131.88l-.708,1.318a3.077,3.077,0,0,1,2.458.924,12.833,12.833,0,0,1,2.238,3.856c.3.727.768,1.82,1.4,3.272l-1.177,1.751c-.528.791-.878,1.319-1.066,1.581-3,4.559-4.536,6.6-5.46,7.326a1.324,1.324,0,0,1-.891.427l.344,1.356H137.7l.606-1.356a7.145,7.145,0,0,1-2.987-.556,1.79,1.79,0,0,1-.588-.432,2.167,2.167,0,0,1-.368-1.42,5.412,5.412,0,0,1,.584-1.779,52.638,52.638,0,0,1,3.01-5.348l4.261,10.892h7.527l.777-1.356a2.523,2.523,0,0,1-2.119-.689c-.855-.8-1.622-2.179-2.817-4.816l-1.935-4.3,1.862-2.735a31.357,31.357,0,0,1,4.343-5.51"/>
      <path id="パス_13943" data-name="パス 13943" class="cls-1" d="M184.427,31.9c4.173-7.726,7.491-12.836,8.851-13.664a5.386,5.386,0,0,1,.722-.358l-.418-1.218-2.321.06c-.795.028-1.944,0-3.465.028-1.287,0-2.248.041-2.909.041h-2.868a21.5,21.5,0,0,1-4.5-.3l-.827,7.588,1.369.923a12.477,12.477,0,0,1,2.707-4.848,6.263,6.263,0,0,1,4.665-2.045h.524l.758.064.294.032-.942,1.687c-.312.588-.662,1.185-.979,1.774-4.8,8.82-8.231,14.132-9.871,15.148a10.06,10.06,0,0,1-.97.5l.422,1.19,2.386-.032h9.471a37.511,37.511,0,0,1,3.981.133,11.57,11.57,0,0,1,1.53.193l.942-8.81-1.567-.993a13.035,13.035,0,0,1-1.756,4.628A7.5,7.5,0,0,1,188,35.5a6.66,6.66,0,0,1-4.279,1.424,9.221,9.221,0,0,1-1.512-.11l-.262-.032-.258-.028.625-1.089c.7-1.227,1.4-2.477,2.11-3.764"/>
      <path id="パス_13944" data-name="パス 13944" class="cls-1" d="M174.377,16.654h-8.148l-.777,1.318c2.652.162,3.755.791,3.644,2.11-.115,1.287-1.48,4.03-3.336,6.765l-4.32-10.193h-7.363l-.772,1.318a3.9,3.9,0,0,1,1.949.722c1.415,1.158,2.955,3.929,4.963,8.948a6.125,6.125,0,0,1,.354,1.222,18.236,18.236,0,0,1-.028,4.422c-.16,1.879-.353,2.541-.854,3-.644.566-1.421.759-3.337.823l.409,1.356h10.924l.749-1.356c-1.516-.092-2.026-.23-2.426-.662-.414-.487-.478-1.282-.3-3.3.088-.956.276-2.413.409-3.139a14.676,14.676,0,0,1,2.629-5.216c3.213-4.582,4.513-6.232,5.267-6.6a4.8,4.8,0,0,1,.713-.226Z"/>
    </g>
    <path id="パス_13958" data-name="パス 13958" class="cls-2" d="M51.437,32.384c-.426-.034.217-.356.349-.061.419-.1,1.244-1.3,1.225-.775.566.226.338-.7,1.12-.568-.436.014.091-.7.288-.417.224-.03.4-.709.644-.792a.768.768,0,0,1,.13-.831c-.471-.177.042-.706.3-1.046-.6-.026.385-.821.13-1.079-.729.761-.325-.951,0-.455.123-.134.376-.012.353-.312-.243.11-.219-.284-.438-.138.513-.6.136-1.054.438-1.7-.764.214-1.008-.395-.276-.454a3.239,3.239,0,0,1-.99-2.856c-1.55.349-.922-.848-1.257-1.8.323-1.489-.6-2.523-.187-4-.247.461-.208-.083-.186-.32-.146.564-.815,2.526-.909,1.647-.184.544-.379.963-.491,1.416-.077-.105-.1.028-.118.061-.2-.479-.1.408-.393.417.256-1.372.229-.73-.449-.133.063-.518-.755-1.036-.557-.2-1.043-.346.976-4.478,0-2.725l.106-.158c.1.235-.358,1.055-.426.54-.145,0,0,.346-.187.186-.222-.111-.043-.62.174-.263-.208-.182-.145-.378-.133-.625-.414.109-.1-.412-.321-.7.029.159-.069.016-.113.016l.028.22c-.1-.061-.162-.179-.219-.22.4-.053-.165-.232.016-.381.439.146.1-.555-.093-.32-.021-.045-.089-.086-.106-.134.076.371.018.476-.153.089a.98.98,0,0,1-.289.8c.11.625-1.043,1.127-.645,1.575-.327.184-.674,1.346-.986.994-.028.247-.285-.005-.235.32-1.306,1.207-3.235,4.42-4.637,1.818.238-.221-.069-.55.032-.929a1.733,1.733,0,0,1-.2.434c-.189-.177-.01-.561-.061-.9,0,.061-.073.146-.114.134.12.113.037.307-.056.089-.122.045-.045.288-.191.2.05-.284-.1.222-.073.353-.213.177.013-.321-.118-.442-.081-.3.664-.023.455-.417-.09.128-.158.035-.236-.045.326.013.172-.191.085-.406a.45.45,0,0,1-.271.39c.107.294-.172.26-.162,0,0,.18-.017.151-.162.129-.1-.164,0-.5.029-.174.194.033.084-.33,0-.333-.189.366-.511-1.044-.523.395-.056-.377-.5-.43-.264-.8-.386.137-.465-.807-.67-.17.117-.263.415.39.32.58-.2-.056-.355-.562-.6-.247a2.393,2.393,0,0,1,.029-.349,2.41,2.41,0,0,1-.8.365c.7-.085,1.106,1.167.516,1.087-.221.445-.344-.467-.7.139-.167.371.165,1.293-.422.6.126.625-.223.7-.685.381-.257.046-.425-.748-.552-.292.6.077-.048,2.07.552,1.887-.346-.373.32-.165.13.044.518-.129.508.2.819.454-.138-.316-.19-.376.26-.466-.059.4.209.31.279.774-.23-.161-.23-.149-.47-.015.292.016.657.231.961.191-.248.154.168.367-.146.507.111.182-.055.486-.024.731-1.119.429-.679.2-1.708-.248.4,1.6,1.619.711,1.456,1.5-.6.048-.628-.252-1.03.086.083.571.277-.011.6-.085-.057.437.336,1,.013,1.545-.086-.178-.349-.2-.264-.409.032.113.093.056.145.129-.038-.259-.26-.167-.474-.085.191.192-.146.116-.092-.044.115.52-.192,1.529-.873,1.281.13.2-.174.309-.259.41-.088-.139.209-.219-.045-.239.1.016,0-.081.012-.114-.007.185-.122.077-.186.045.232.352.044.462.023.76-.165.179-.476-.269-.125-.095.012-.09-.1-.09-.134-.154-.316.192.481.966.012,1.147.021.072.389.376.309.6.7-.339.191.108.567.235.284.112.728.275.759.625.227-.51.992,1.1.291.864a1.492,1.492,0,0,1-.1,2.333c.217-.275.15-.309-.017-.617-.18.117-.213.325-.454.13-.045-.672,0,.011-.231.089.266.284-.09.743.012,1.181.019-.231-.021-.668.3-.524.055.66-.432.928-.325.069-.628,1.021-.884,3.489-1.866,3.688-.123.164-.409.293-.2.438-.161-.031.088.186-.106.243.17.37-1.219,2.056-1.509,1.5-.124.049-.157.1-.061.2-.136.126-.268.147-.422-.089-.127.17-.491.4-.032.235-.686.862-2.261,2.361-.771.117-.186.1-.4.333-.511.016-.332.044.434.985-.349.71.3.722-.543.756-.933,1.038-.368-.117-1.357.868-.991.109-.33.091-1.139.622-1.27.276-.073.179-.244.4-.126.426-.327-.076-1.431.729-1.067.089-.243.1-.043-.234-.044-.353.188.154.019.5.377.406-.335-.48-.118-.644.426-.649-.095-.191-.531-.479-.3-.093a2.162,2.162,0,0,0-.645.353c-.207.351.042.617-.406.739.3.154-.634.149-.263-.187-.013-.124-.285-.011-.2-.243-.506,0,.371-.373-.077-.686.037.216-.225.333-.1.467-.146-.073-.073.231-.191.069.276.19.166.882-.044.511-.225.081.016.157.059.234-.423.192-.733.19-.872-.26-.162.549-.7.35-1.079.666.264-.314-.221-1.169-.044-.815.145.231-.134.26-.163.438.008.324-.644,0-.174.418-.126.137-.256.179-.276-.041-.13.044-.4.1-.174.134l-.118.012.016-.024c-.527.456-1.157.094-.207.041-.636-.2.148-.125-.146-.613-.229-.532.663-.519.99-.77a6.266,6.266,0,0,0-.957.114c.556-.365-.762-.61-.438-.142-.086.558-.608-.045-.743.276-.259-.764.835-.692,1.311-.775-.262-.343.3-.673-.187-.888-.332.074-.982.775-1.038.32-.155-.122-.405.152-.361-.134.02.252-.391.328-.207.381-.468-.047-2.149.24-2.142-.084-.387.06-1.716.371-2.081-.089.887-.709,4.146-.185,5.7-1.093-1.217.452-3.662.254-3.772.361-.225.221-.9-.006-.325-.081-5.258.13-13.608-3.752-10.863-9.923-.58.368.56-1.107.718-1.327-.371.217-.056-.441.1-.092.3-.1-.157-.424.178-.3-.077-.113.215-.113.029-.13a4.424,4.424,0,0,0,.7-.77c-.558.793-1.307.682-.7.247-.033.269-.1.31.085.028.046.388.183.133.118-.142-.243.134-.057-.21.1-.146.12-.29.078-.092-.293-.113.211-.557.789.3.7-.381-.562.2-.485-.02-.085-.248-.168-.153.129-.185.219-.308-.107-.4.106.211.175.308-.045-.134.162-.105.146-.2,0,.078.041.078.1.078-.235-.1.243-.293-.073-.4-.5.552-.348-.38.426-.26-.318-.382.2,0,.255-.174-.338-.069.075-.251.016-.466-.429.275-.333.077-.113-.232.23-.023.636.066.49-.15-.522.091.165-.383.22-.025.447-.127-.6.406.341.069-.118-.062-.089-.128-.017-.215-.5.238-.381-.52.114-.158.193-.052.339-.424.482-.1.384-.205-.109-.21.3-.442,1.137-.753,3.1-.911,3.861-.377.159-.271.438.043.085.116.28.251.541.108.791.39.076-.11.179-.028.158.059.314.065.348.027.163.3.192-.225.249-.168.535-.085.061.294-.3-.039-.349.231.126.11.639.145.776-.029.127.248.235-.01.321-.13-.064.472.5.174.829.333,1.317-.212.828.15-.171.18.241.448-.276.013-.4.158.089.041.316.032.264.174.412.04-.157.019-.219.13.959.056,1.2.373,2.1.057.608.1.418,0,.04.284.484.224.526-.152.966.009-.13-.114-.029-.26-.029-.373.057.114.171.016.244.065-.62-.286.09-.269.4-.126-.232.058-.463.188-.405.417.285.048.552-.031.109-.113.095-.372.38-.056.528.032-.346.214.394.149.236-.251.243-.248.625,0,.815-.3.393.223-.143.148-.365.337.35-.031.35.232.045.085.426.426-.71.32-1.006.366.106.108,1.313.2,1.371,0,.069.042.3-.121.276.074.183-.365.87-.062,1.209-.134-.268-.046-.06-.11.045-.187-.224-.642.166-.461.6-.349a1.514,1.514,0,0,1,1.107-.089c-.061.235-.236-.017-.321.145.307.022,0,.128-.117.015-.017.194-.392.117-.325-.073-.5.007-.7.672-.259.2.111.154.176.2.275.029.243.269-.269.2-.353.292.4.325.62-.46.735-.158a1.314,1.314,0,0,1,.624-.292c.01.389-.62.071-.45.418a3.8,3.8,0,0,1,.872-.158c-.073-.045.029-.228-.13-.219.173-.116.345-.53.5-.175.011-.143.368-.072.337.045,0-.17.574-.047.118-.215.019-.322.413-.459.434-.045-.058-.345.828-.01.19.26-.162.2-.438.1-.657.089.057.1-.13.17-.042.215.334-.172.123.111-.157.081a.218.218,0,0,0,.374-.036c.089.087,1.006-.152.746-.446.358-.3.164.27.26.344.984-.31.711-.029.248-.438.089.094.1-.085.145-.13-.74.011.351-.591.292.129-.028-.585.717.161.187.134.154.107.6-.062.844-.117-.078-.249-.546,0-.447-.26.332.019.461-.446.556-.662-.8.606-1.929.068-.861-.49-1.652.763-1.059-.9-1.443.146-.16-.2-.816.261-.56-.235.157.184.307-.14.207-.321.6-.7-.192.087-.422-.288.258-.077.716-.429.394-.64.151-.024.283.186.287.337,1.045-1.183-.944-.258-.114-1.084.7.515,1.19-.13,2.26-.085a4.23,4.23,0,0,1-1.489.625c-.068.284-.085.621-.3.624.308.205.5-.21.742-.243-.2-.207.1-.512.247-.219.128-.314.722-.272.946-.321.336-.442-.265.176,0-.774.2.046.353.18.483-.09.2.308.605-.425.556.467.307-.139.131-.253.057-.434.113-.236.89-.276.6.057,0,.191.057.174.159.264-.053.12-.368.445-.289.17-.451.015-1.347.18-.508.324-.656.67.511-.275.507.276.218-.045.262-.144,0-.158.075-.206.618-.372.322-.137.8.282-.482.106-.045.617.243-.2.907-.032.381-.3.8.283.15.063.682-.133-.708-.416-.871-.1.235-.524-.53-.265-1.339.559-.849-.32.4.043.172-.177.162-.349-.715.265.048-.557.293-.045-.054-.266.338-.389.174-.053.057-.036.248-.154.1-.178.11-.073.138.117.151.178.07-.145.239-.291.2-.381a2.636,2.636,0,0,0,.877-.122c-.325-.079-1.5.18-1.006-.231a.315.315,0,0,0-.337.231c-.082-.166-.387-.282-.463-.1.5-.047-.03.357-.268.54.472-1.146-.712.12-1.294.04-.127-.323.442-.4-.04-.656.2-.115.376-.492.244,0,.131-.2.3-.164.194-.39-.506.086-.812.526-.438-.089a.823.823,0,0,1-.523-.175c-.118-.057-.109.089-.15.162-.146.042-.232-.19-.3-.044-.313-.721.215-.476.595-.653a.655.655,0,0,1-.361-.154c-.407.629.074-.888.316-.4.016.059-.1.047-.129.056.463.629-.087-.648.54.155.081-.2-.162-.085-.178-.244.116-.064.443-.032.422.089.043-.147.16-.385.337-.21.175-.3.6-.208.888-.171.047-.376-1.078-.031-.491-.263a2.265,2.265,0,0,0,.6-1.023c-.291.315-.8.277-.731.763.086.259-.145.081-.235.259-.212-.171.261-.372.089-.564.145.065.089-.122.162-.179-.089-.044-.218.1-.263-.077.2.008.164-.059.028-.17-.12.3-.155.511-.405.653-.4-.081.333-.4.141-.592-.156.291.174-.672-.04-.686-.021-.158.229-.163.186-.016.136.255,1.043.125.54.438.152.252,1.06.105.962-.337a1.088,1.088,0,0,1-.783-.073c-.073-.186.142-.061.174-.13.056-.179-.072-.348.186-.352-.336-.3-.757-.15-.962-.434-.109.388-.434.321-.231-.074-.412.009-.247-.3.061-.117.008-.185-.027-.771-.313-.321-.243.017-.491-.349-.681-.1-.212-.085-.035-.868-.438-.67.094-.246-.381-.351-.507-.251-.517-.274-.489-.859-.965-1.091-.138.383-.014.469.017.889-.192-.3-1.072-1.191-.581-.973.035-.157-.221-.1-.032-.252-.218.318-.155.125-.451.061.288.855-.831-.374-1.224-.439-5.709-1.406-12.244,5.879-14.45-2.766C12.23,8.231,13.805,6.155,14.16,5.72,16.6,2.657,20.875,1.492,24.937,2.15c-.041.036-.1.016-.158.016.454.086.917.134,1.359.264-.049.032-.109.012-.15.012.556.069,1.12.145,1.679.268a.428.428,0,0,1-.178.012,7.354,7.354,0,0,1,5.684,5.026c1.593,3.241,2.389-1.188.447-3.076a2.989,2.989,0,0,1-1.412-1.225c-.016.029-.174.077-.174.13A13.535,13.535,0,0,0,24.708.737c-.115-.186-.628-.069-.552-.32-.158.07-.364.426-.466.016-.437-.124-.914.3-.933-.174C22.6.382,21.44.744,21.694.32c-.178.087-.534.338-.746.1.107.309-.37.288-.362.016-.062-.006-.065.215-.186.045a.232.232,0,0,1-.235.146c.02.309-.055-.05-.13-.1-.109.112-.1.179-.219.04-.2.311-1.709.178-1.282.479-.265.245-.4.077-.584-.04-.012.281-.707.5-.962.392a14.933,14.933,0,0,0-2.433,1.237c-.105.181-.467.256-.191.061-.113-.032-.186.154-.275.232.179.26-2.2,1.97-2.7,1.777-.252.012-.262.146.015.117-.247.418-.477.283-.771.349.1.012.1.231.207.145-.257.246-.212.689-.178,1.124-.49-.164-.344.455-.544.13.053.061.042.272.207.243-.1-.041.118-.052.106-.125.012.073.028.219-.074.125.154.3-.4.858-.725,1.023.316.094-.007.575-.143.389-1.51,2.442-.719,5.33-.036,7.655.622.97.641,1.944,1.53,2.84A26.308,26.308,0,0,0,1.326,29.68c.249.2-.276.361-.085.544C-.165,31.259.806,33.7,0,34.853c.414-.259,1.033-.076.41.162.077.251.331.638-.057.771-.083-.206.025-.617-.264-.219.007.451.749,1.025.219,1.72a6.155,6.155,0,0,1,.8,1.85c-.191-3.27.136-2.3.423.438-.028-.049-.077-.085-.089-.134-.2.179.194.218.34.28-.073.1.013.19.057.276-.27.075-.539-.424-.333.163.179-.048.535.048.289.26-.432-.32-.089.174-.159.324-.174-.122-.19-.308-.32-.349.149.581,1.155,1.221.848,1.57.068.158.186-.089.288.029,0,.06.072.129-.057.085-.08.361.957,1.221.665.488.107-.184.636.56.134.259a2.533,2.533,0,0,0,.455.747c-.947-.426.022.353.084.665.111-.32.415,1.187.583.511a.2.2,0,0,1,.028.334c.348,0,.51,1.2,1.019.88-.035-.529-.334-.435.378-.28a1.307,1.307,0,0,0-.028.859c.19.045.409-.057.364.231.644.329-.315.182.544.409-.405.124.064.2.211.008.049.19,1.423.95,1.359,1.241.353.168,1,.414.248.467.221.1,1.046.281,1.152.466.466-.308.038.283.406.3.333-.146-.145-.594.289-.572.055.262.248.316-.025.535.309-.137.882.1.321.089.069.134-.042.207.174.264-.056.016-.363-.034-.248.118.24,0,.454-.113.377.2a2.774,2.774,0,0,1,.454.232l-.134.044c.483-.364-.215-.984,1.063-.627.394.779-1.338.114-.58.559-.383.394,1.115-.015,1.513.175-.245.153-.969.357-.957,0-.642.353.347.342.625.593-.054-.282.678-.788.686-.333-.34-.076-.087.33-.439.027.152.139,0,.295-.134.353.159.029.337.057.321.26.119-.2.418.19.337-.276.371-.052,1.044.25.714-.275.377.054.3.116.219.45-.057.32-.369-.159-.382.145a1.911,1.911,0,0,1,.877.247c.164-.089.023-.315-.073-.157-.265-.256.3-.079-.045-.337.3.075,1.288.3.539.353.358.056-.133.117-.069.171.244.064.276-.367.373,0,.3-.514,1.83-.54.775-.09a7.146,7.146,0,0,1,1.351.016c0,.191-.3.029-.373.179.13-.035.784.125.58-.094.152-.15.457.079.366.252.311-.045.415-.06.231.146.13-.164.9.013.7.142.117-.024.077.106.194.134-.282-.537.483,0,.524-.365.418-.274.358-.07.186.146.568-.4,2.047-.18,1.838-1.063.852.348-.456.939-.948,1.023.144.041.235-.09.308.081.1-.33.374.138.482-.13,1.343.229.035.057-.28.353.326.254,1.007-.328,1.051.113.142-.179.026-.245-.089-.376.2-.016.264-.1.438-.2.05.465.884.014.6.467.74.087.916-.366,1.6-.569.637.111-.031.193-.234.248a5.222,5.222,0,0,0,1.488-.073c-.324,0,.536-.165.67-.276-.266-.246.739,0,.86-.178-.009-.451.168-.221.349-.052.219-.106.523.008.832,0-.073.009-.09.1-.163.1l.1.061c.07-.173.276-.468.422-.264,0-.2.131-.023.19-.073-.2-.265.4-.157.613-.174-.077.234-.311.005-.089.406.267-.432.271-.6.669-.435-.1.159-.475.273-.069.231.334-.269,1.589-.885,1.951-.58-.942.339-.918.7-.073.187-.044-.126.191-.175.057-.321.2-.017.707-.239.422.057.369-.213.051.172.515-.089-.368-.022.18-.024.17-.171-.321.07.066-.109-.044-.142.757-.451,1.121-.5.567.187.213-.16.361.062.352-.365.189.309.34.033.016-.158.159,0,.642-.5.6-.183a5.529,5.529,0,0,1,.982-.564c-.049,0-.09.016-.118-.016.256,0,.329-.15.531-.211-.028-.017-.041-.077-.048-.077.488-.126.748-.876,1.119-.625.11-.94.868-.764,1.136-1.534-.693.331.07-.684.437-.787.1.326.245.287-.077.495.094-.086.2-.029.309-.057-.114-.073.113-.174.113-.264-.356-.067.088-.537.076-.113.052-.7.715-1.091,1.181-1.574-.075.931.063-.43.483-.394.378-.492,1.206-1.738,1.6-1.659,0-.089.057-.215.105-.215-.3.216.012-.665.2-.365-.154-1.194,2.047-2.121,1.282-3.091a2.416,2.416,0,0,1-.791,1.642c-.278.51-1.661,2.934-2.982,3.618-.091-.036.913-1.993.974-1.314.046-.667.506-.829.731-1.164-.379.285-.278-.019-.175-.293.983-.755,2.47-4.935,3.278-5.781.041-.044.073-.093.142-.032-.28-.418-.044-.582.077-.966h-.134c.09-.024.118-.129.15-.162-.426-.07-.188-.495-.048-1.148-.3.778-.863,2.892-.8,1.067a1.308,1.308,0,0,1,.1.435c-.091-.727.277-.534.373-1.217-.518-.354.4-.3.572-.439l-.016,0c.094-.053.47-.116.337.016a9.234,9.234,0,0,0,4.835-.827"/>
  </g>
</svg>
